<svg width="443" height="271" viewBox="0 0 443 271" fill="none" xmlns="http://www.w3.org/2000/svg">
<path fill-rule="evenodd" clip-rule="evenodd" d="M94.3105 162.187L95.4412 176.355L116.923 181.456L133.317 188.823L146.319 200.158L152.537 195.057L160.451 177.489L169.496 175.789L202.284 179.189L213.59 182.589L209.633 201.858L205.676 216.026L271.251 212.059L268.99 179.189L255.422 149.153L201.718 123.083L161.582 128.184L133.317 159.354L120.88 166.154L98.833 165.021" fill="#019267"/>
<path fill-rule="evenodd" clip-rule="evenodd" d="M364.699 31.9608C369.117 37.3274 362.608 44.9166 358.917 48.6611C357.126 50.4792 355.641 52.5803 353.89 54.4435C352.16 56.2848 349.989 57.7339 348.435 59.5113C346.804 61.3779 344.921 63.4208 343.557 65.5208C342.694 66.8513 341.414 68.3372 340.985 69.8812C340.369 72.1015 340.884 70.819 341.698 72.0744C342.53 73.3563 342.811 73.4303 343.093 75.2173C343.367 76.9545 343.757 78.2257 344.696 79.7099C346.243 82.1545 347.914 84.4528 349.005 87.1555C350.455 90.7504 351.482 94.4001 352.637 98.0983C353.088 99.5407 353.39 101.193 354.118 102.521C355.15 104.409 355.296 104.251 356.833 103.073C361.421 99.5593 366.061 95.8447 370.844 92.4956C373.584 90.577 376.43 88.6985 379.321 87.0177C381.306 85.864 385.57 83.811 386.563 81.6698C387.88 78.8302 385.83 76.2246 388.652 73.61C390.49 71.9072 393.486 70.9631 395.88 70.5495C399.264 69.9654 403.003 70.7998 406.383 71.1021C409.801 71.4072 413.143 71.075 416.495 70.3761C421.626 69.3066 431.482 63.3886 434.807 70.4981C436.262 73.6088 435.279 77.0557 435.005 80.2443C434.767 83.0234 433.951 85.9736 432.219 88.2595C430.238 90.8713 427.356 91.008 424.358 91.7018C420.817 92.5204 417.184 92.8188 413.638 93.6176C411.892 94.0108 410.169 94.2024 408.376 94.2848C406.78 94.3588 404.479 93.7125 403.078 93.9165C401.75 94.1097 402.204 94.9475 401.271 95.5283C400.893 95.7639 400.122 95.595 399.886 95.7848C399.237 96.3057 399.05 96.7594 398.577 97.7029C397.075 100.7 394.803 103.621 392.872 106.367C391.246 108.68 389.362 111.512 387.449 113.576C383.393 117.952 379.454 122.774 375.451 127.347C373.414 129.674 370.971 132.149 368.605 134.149C367.874 134.766 366.398 135.322 366.025 136.186C365.492 137.418 366.941 140.13 367.279 141.368C368.083 144.313 368.192 147.354 369.045 150.254C369.861 153.028 370.157 156.052 370.338 158.943C370.748 165.477 371.641 171.675 371.432 178.213C371.25 183.851 371.044 189.259 369.084 194.795C367.301 199.834 361.957 205.32 356.988 207.176C354.03 208.282 351.282 209.286 348.306 209.886C345.366 210.478 342.268 211.084 339.349 211.917C333.934 213.463 328.226 214.543 322.601 215.072C315.403 215.749 307.893 215.814 300.713 215.565C297.439 215.452 294.073 215.445 290.842 215.454C287.493 215.465 284.339 216.124 280.992 216.475C269.179 217.713 256.695 216.718 244.889 217.928C239.054 218.527 233.228 219.679 227.292 219.748C221.977 219.809 216.588 219.458 211.391 219.435C209.742 219.428 208.306 219.559 206.659 219.181C205.79 218.982 204.569 218.206 203.692 218.653C202.926 219.044 202.348 220.69 201.873 221.392C200.836 222.925 199.571 224.157 198.236 225.429C192.936 230.477 187.683 232.177 180.727 234.026C177.534 234.876 175.957 235.32 173.276 237.264C171.092 238.847 168.882 239.984 166.368 240.917C161.437 242.748 155.622 241.332 150.988 239.744C148.744 238.975 146.385 238.276 144.093 237.363C140.97 236.12 138.393 234.055 135.315 232.785C135.668 236.066 132.106 237.168 131.026 239.373C130.328 240.798 130.751 243.035 130.006 244.646C129.316 246.14 128.248 247.552 126.584 247.943C124.316 248.475 120.261 245.954 118.667 244.483C117.783 243.666 116.993 241.491 115.91 241.129C114.497 240.656 111.908 242.744 110.571 243.216C104.172 245.473 97.6878 246.537 90.8173 245.638C83.8559 244.727 77.4745 242.257 70.9464 239.915C58.1611 235.328 47.0324 227.776 37.021 218.684C36.4641 218.178 35.6558 217.727 35.2718 217.063C34.9363 216.484 34.9656 215.117 34.7465 214.794C34.0941 213.832 33.117 214.002 31.8936 213.91C28.1138 213.624 25.1112 212.713 22.1815 210.182C17.5703 206.197 15.8646 196.909 22.9333 194.442C24.7401 193.811 26.7289 193.685 28.5967 194.074C29.3671 194.234 32.233 195.97 32.965 195.854C34.0749 195.677 33.8592 194.25 34.154 193.487C34.9018 191.554 35.9541 189.853 37.2227 188.212C39.3311 185.486 41.9005 182.745 44.5371 180.527C47.4013 178.115 50.5552 177.045 53.965 175.71C56.2622 174.811 60.7463 173.267 63.1795 174.071C66.3482 175.119 64.7972 178.58 62.8005 179.79C59.9488 181.519 56.5265 182.228 53.6369 183.977C50.4479 185.908 47.5351 188.553 44.6167 190.874C42.2682 192.742 40.2331 195.047 37.8473 196.838C37.2147 197.312 36.1817 198.143 35.9851 198.405C35.9168 198.496 36.0009 199.234 35.688 199.563C34.3003 201.018 34.625 200.854 32.5352 200.343C30.0715 199.741 24.19 198.379 22.5289 201.431C21.0338 204.178 27.153 206.653 29.1621 207.491C32.1116 208.721 32.8007 209.956 34.908 212.299C37.0668 214.7 40.6528 216.332 43.3572 218.123C49.2025 221.992 55.773 224.737 62.0329 227.811C68.1245 230.802 74.673 232.955 81.0205 235.047C84.8528 236.311 89.4453 237.666 93.4674 238.055C97.52 238.448 101.321 237.787 105.297 237.015C106.887 236.706 108.087 236.469 109.75 235.883C110.491 235.622 111.699 235.584 112.287 235.127C113.198 234.419 112.819 233.854 112.981 232.645C113.687 227.343 117.367 233.262 118.996 235.026C120.253 236.389 121.49 238.063 123.145 238.926C125.218 240.007 125.578 239.498 126.257 237.715C127.529 234.377 128.008 230.582 132.814 231.073C129.019 227.828 125.403 225.072 122.155 221.173C118.95 217.327 115.953 213.193 112.88 209.24C110.361 206 108.167 201.529 104.898 198.973C103.864 198.165 100.722 196.304 99.5257 196.343C97.7358 196.401 96.1464 199.324 94.2181 199.566C92.0881 199.835 91.1076 199.092 90.4993 197.364C89.8684 195.572 91.3765 193.508 90.867 192.205C90.7252 191.842 89.8187 191.408 89.5385 190.881C89.1172 190.09 89.0867 189.05 89.2126 188.174C89.4007 186.867 89.8633 186.333 89.7645 185.018C89.6498 183.49 88.9794 182.372 89.5075 180.774C90.0616 179.095 91.7667 178.175 92.8309 176.935C94.4417 175.058 93.6188 173.643 92.9726 171.232C91.5888 166.073 89.9751 160.972 88.571 155.816C85.3419 156.837 82.1846 157.994 78.9386 158.946C75.8162 159.861 71.9523 160.683 69.0553 162.127C67.3146 162.995 67.7981 162.197 67.9268 164.125C68.0093 165.372 68.5368 166.766 68.782 167.996C69.2344 170.269 69.4315 176.132 71.2124 177.217C72.2906 177.875 74.0258 176.919 75.2113 178.247C76.2099 179.363 75.9106 180.988 76.5115 182.229C76.8849 183.001 77.6073 183.294 78.0569 184.003C78.9956 185.486 78.8956 186.732 79.0611 188.394C79.1651 189.44 79.0041 192.573 79.5248 193.386C80.2196 194.47 81.596 194.282 82.7567 194.62C85.6814 195.471 88.375 196.951 90.8585 198.677C92.1474 200.252 101.372 209.474 97.3658 210.647C95.4313 211.214 92.0085 206.859 90.6162 205.675C88.458 203.84 86.1976 202.635 83.5661 201.624C77.1436 199.154 71.3327 196.935 64.3385 197.96C61.3399 198.399 57.6974 199.726 54.6852 199.434C51.6538 199.141 52.4389 196.438 54.3344 194.93C56.0295 193.582 58.3887 193.961 59.1326 191.701C59.8832 189.417 59.0772 186.532 60.282 184.244C61.3105 182.289 63.7353 180.261 65.6071 179.129C66.4233 178.636 67.8223 178.291 68.2488 177.564C68.5984 176.967 67.1576 173.548 66.9576 172.837C65.9793 169.354 64.9129 165.869 64.0844 162.348C63.3162 159.086 63.1163 157.395 66.5555 156.211C71.8043 154.403 77.3074 153.558 82.5585 151.895C81.6277 149.472 78.7183 151.511 76.6284 151.427C74.0687 151.324 71.1068 150.482 68.669 149.697C63.1349 147.912 59.3692 143.462 58.5141 137.724C58.326 136.466 58.9185 133.941 58.4599 132.828C58.0272 131.777 56.8038 131.266 55.9097 130.517C53.6053 128.587 51.564 125.937 50.3208 123.195C49.0748 120.446 48.9879 117.359 49.712 114.458C50.1107 112.86 50.3361 112.64 49.7724 111.129C49.1195 109.381 48.0548 107.824 47.4527 106.028C46.4665 103.085 45.9288 99.913 45.9824 96.8057C46.0434 93.3199 47.4425 91.7561 48.3694 88.6826C49.1008 86.2567 48.1028 82.9036 48.27 80.2116C48.484 76.767 49.3663 73.9998 50.8896 70.9337C53.2302 66.2231 56.9366 61.1734 61.7607 58.7034C62.7147 58.2147 64.2826 58.1859 65.1349 57.6181C66.194 56.9124 66.277 55.8723 66.6916 54.6362C67.6806 51.6882 68.9153 49.3001 71.0537 47.0465C77.9891 39.7375 90.1423 37.1489 99.8889 37.7658C101.639 37.8771 103.308 38.7048 104.967 38.2183C106.116 37.8811 107.334 36.6845 108.519 36.189C110.018 35.5619 111.521 35.1952 113.134 35.0348C116.321 34.7173 118.913 35.0528 121.85 36.128C122.959 36.5342 124.021 36.9777 125.114 37.4183C126.839 38.115 126.741 37.7833 128.364 37.4602C131.598 36.8167 133.456 37.2929 136.321 38.672C137.085 39.0392 138.293 39.3121 138.95 39.8268C139.879 40.5562 140.258 42.7725 141.293 43.1861C141.867 43.416 143.642 42.5703 144.381 42.4499C145.687 42.2369 146.966 42.4245 148.265 42.4104C150.566 42.3855 152.997 42.4708 155.098 43.5578C156.68 44.3759 158.584 45.9544 159.946 47.0058C161.831 48.46 163.009 51.2097 165.362 51.9713C166.284 52.2696 167.281 51.9679 168.222 52.2221C169.449 52.5532 170.627 53.4413 171.621 54.2255C173.33 55.574 174.776 58.709 176.517 59.257C177.679 59.6231 179.485 59.2412 180.815 59.6203C182.483 60.096 183.866 60.7853 185.103 62.0468C187.462 64.4536 188.129 68.0112 188.23 71.2744C188.257 72.154 187.714 74.6342 188.242 75.415C188.71 76.1077 190.475 76.5071 191.193 77.2178C193.439 79.4398 194.453 83.1426 194.68 86.1866C194.94 89.66 194.043 92.108 193.425 95.4317C193.04 97.5034 192.542 96.1763 194.292 97.3967C195.493 98.2345 196.323 98.8204 197.102 100.136C198.731 102.885 199.14 106.127 198.871 109.261C198.535 113.171 196.551 116.085 195.659 119.785C199.77 119.785 204.2 120.87 208.217 121.628C209.699 121.908 210.847 122.722 212.163 123.375C213.298 123.938 214.145 124.004 215.216 124.377C217.808 125.28 217.307 125.13 219.11 123.281C226.294 115.917 236.52 111.472 246.832 111.616C252.583 111.696 258.147 112.455 263.525 114.524C265.753 115.381 268.231 116.305 270.208 117.65C272.498 119.208 272.839 119.19 275.867 119.253C286.832 119.481 297.471 125.365 305.451 132.498C306.164 127.714 313.94 124.845 317.705 122.862C318.992 122.184 320.174 121.831 320.807 120.562C321.4 119.374 321.365 116.93 321.761 115.53C322.488 112.96 323.328 109.816 323.262 107.106C323.074 99.2588 321.257 91.4482 321.021 83.5833C320.962 81.6082 320.738 79.3912 321.001 77.4353C321.212 75.8597 321.932 74.8772 320.897 73.4184C318.933 70.6496 315.311 69.958 314.093 66.3129C312.13 60.439 315.502 54.4323 320.105 50.9385C322.755 48.9272 325.345 48.5013 327.469 45.6815C329.383 43.1409 331 40.1364 333.18 37.8268C335.009 35.8907 336.675 33.2964 338.771 31.6851C340.92 30.0331 344.075 28.9162 346.641 28.1315C352.801 26.2467 360.365 26.6965 364.699 31.9608ZM172.156 179.522C170.723 179.583 169.281 179.744 167.845 179.742C166.972 179.741 164.943 179.27 164.156 179.602C162.583 180.267 161.311 183.905 160.576 185.357C158.195 190.064 156.321 195 153.998 199.725C152.79 202.183 150.986 203.8 148.135 203.839C144.941 203.883 143.438 201.838 141.411 199.74C137.369 195.554 131.928 191.956 126.911 189.045C121.492 185.901 115.029 182.854 108.859 181.744C104.75 181.005 95.3364 177.817 92.8365 182.967C94.1141 182.797 98.9902 182.051 99.197 184.211C99.3523 185.831 93.3539 186.108 92.6129 188.649C94.1814 188.527 99.5951 187.016 99.9758 189.346C100.178 190.584 97.9159 191.208 97.1201 191.625C95.5431 192.454 94.5937 193.315 93.3522 194.56C95.2675 194.56 97.1557 192.935 98.9744 193.104C99.7245 193.174 100.627 194.295 101.309 194.637C102.277 195.121 103.322 195.363 104.389 195.495C106.714 195.782 108.121 195.127 109.974 196.64C111.638 197.998 113.368 199.791 114.901 201.303C118.172 204.531 120.865 208.627 123.672 212.254C127.137 216.732 130.735 220.287 135.345 223.641C139.097 226.371 142.9 228.138 147.151 230.148C151.322 232.12 156.567 234.406 161.299 234.515C165.073 234.602 169.79 233.391 173.225 231.782C175.223 230.846 175.949 230.847 177.948 230.476C181.051 229.901 184.642 228.237 187.514 226.931C196.533 222.831 202.248 213.894 206.315 205.147C208.63 200.168 210.076 195.304 211.04 189.917C211.566 186.983 212.024 186.294 209.163 185.081C206.273 183.855 203.15 183.098 200.143 182.232C191.321 179.694 181.265 179.134 172.156 179.522ZM193.707 126.423C192.807 126.828 192.328 131.153 191.924 132.116C190.122 136.415 186.924 139.097 182.235 139.545C180.78 139.684 178.406 138.359 177.362 138.985C175.966 139.824 175.713 143.831 174.21 145.146C172.826 146.356 169.943 147.636 168.169 148.102C166.799 148.461 165.44 148.362 164.074 148.046C163.296 147.865 161.81 146.904 161.048 147.267C159.749 147.885 159.137 151.176 157.655 152.292C155.488 153.924 152.047 155.133 149.394 155.103C146.658 155.071 143.36 152.911 140.924 153.428C138.032 154.042 138.412 156.73 137.149 158.831C134.468 163.293 131.422 167.136 126.601 169.267C121.388 171.571 113.914 171.864 108.445 170.692C105.473 170.054 102.489 169.153 99.9804 167.451C97.9816 166.094 96.481 164.287 94.6299 162.754L94.3272 162.509L94.3425 162.563C94.3835 162.706 94.4252 162.845 94.4677 162.981C95.3494 165.79 95.7408 170.774 97.4923 173.065C99.0597 175.115 104.502 175.23 107.122 175.505C114.143 176.245 120.181 177.887 126.375 181.407C132.303 184.776 137.718 188.853 142.851 193.246C143.905 194.148 144.748 195.595 146.023 196.176C148.106 197.124 147.938 196.017 148.489 194.164C149.619 190.362 150.818 186.607 152.54 183.023C153.277 181.487 154.955 179.584 155.315 177.953C155.659 176.388 154.951 174.681 155.192 173.001C155.799 168.756 157.717 165.137 160.12 161.704C161.789 159.322 166.78 155.265 166.143 161.262C165.672 165.69 162.436 169.613 161.641 173.964C164.094 173.507 165.633 173.64 167.842 173.78C170.855 173.97 174.282 172.792 177.388 172.782C183.344 172.763 189.21 173.151 195.064 174.211C197.775 174.703 200.356 175.258 202.97 176.185C205.024 176.914 207.755 179.233 209.943 179.41C211.529 179.539 210.976 179.746 211.407 178.394C211.808 177.139 211.378 174.882 211.297 173.565C211.115 170.586 210.401 167.687 210.03 164.727C209.872 163.457 208.355 158.164 209.955 157.138C212.404 155.568 213.428 161.728 213.74 162.831C215.337 168.488 216.364 174.061 216.317 179.975C216.275 185.089 215.935 190.006 214.978 195.09C214.412 198.094 213.374 200.978 212.209 203.795C211.596 205.278 207.997 210.902 208.498 211.892C208.899 212.686 215.013 211.304 215.954 211.224C219.301 210.938 222.656 211.137 226.007 210.938C230.96 210.644 235.95 210.704 240.693 209.832C243.521 209.311 246.522 209.809 249.347 209.827C252.463 209.847 255.475 209.56 258.611 209.857C260.993 210.082 264.567 211.338 266.865 210.816C269.217 210.282 268.523 208.708 268.539 206.315C268.577 200.533 268.062 193.878 266.77 188.256C266.088 185.292 265.172 182.422 264.682 179.409C264.193 176.394 264.219 173.136 263.309 170.217C261.695 165.037 257.257 160.541 253.581 156.713C249.799 152.774 245.591 149.915 240.951 147.09C237.007 144.689 232.839 142.435 228.566 140.557C223.437 138.303 217.613 136.913 212.86 133.945C208.905 131.476 203.184 129.041 198.621 127.897C197.898 127.717 194.217 126.194 193.707 126.423ZM334.59 78.554C331.299 79.0161 325.148 77.4099 325.15 81.9438C325.151 84.4307 325.977 87.0386 326.212 89.5267C326.488 92.4628 326.297 95.4176 326.744 98.3424C327.469 103.077 328.532 107.449 328.176 112.313C327.788 117.601 326.686 122.682 326.788 128.045C326.885 133.149 326.61 138.07 329.037 142.754C330.061 144.731 330.892 147.054 332.019 148.904C333.34 151.073 334.483 151.708 336.844 152.581C338.322 153.128 341.962 153.84 342.919 155.314C344.302 157.442 342.455 158.302 340.637 158.23C335.022 158.007 329.256 155.503 323.991 153.674C321.514 152.813 319.13 151.729 316.696 150.789C314.75 150.038 313.164 149.779 311.395 148.498C307.084 145.377 303.756 141.063 299.505 137.861C291.461 131.804 281.818 128.188 271.716 127.115C269.116 126.839 267.104 126.963 264.501 127.183C263.06 127.305 261.634 127.344 260.208 127.609C259.384 127.762 256.287 129.232 255.644 128.927C251.465 126.941 263.298 120.898 264.629 120.568C262.948 119.384 259.456 119.588 257.439 119.325C254.864 118.988 252.36 118.66 249.76 118.801C246.125 119 242.258 118.893 238.69 119.677C234.22 120.659 229.987 122.167 225.947 124.283C224.598 124.989 222.701 125.848 222.714 127.816C222.726 129.666 223.463 129.363 225.265 129.772C230.121 130.877 234.615 134.093 238.941 136.543C243.541 139.148 248.122 142.074 252.39 145.195C260.573 151.178 265.243 159.787 268.877 169.144C270.756 173.984 272.119 179.636 272.685 184.794C273.315 190.533 272.789 196.304 273.239 202.037C273.344 203.392 273.526 208.798 274.549 209.64C275.325 210.279 279.176 209.137 280.262 209.062C284.8 208.75 289.366 208.781 293.818 208.525C303.227 207.983 312.873 208.739 322.369 208.181C327.145 207.9 331.769 207.229 336.453 206.266C340.807 205.371 346.232 205.264 350.203 203.196C357.848 199.216 362.508 189.621 362.844 181.496C363.207 172.689 362.605 163.105 360.754 154.331C359.784 149.73 358.942 145.352 357.8 140.806C356.522 135.716 355.087 130.648 353.684 125.621C351.267 116.968 347.505 108.907 345.705 100.038C344.714 95.1594 343.31 90.0589 341.845 85.2974C341.305 83.5426 340.241 80.2087 338.984 78.8754C337.663 77.4754 336.555 78.2783 334.59 78.554ZM66.351 183.941C64.369 185.208 62.94 188.057 63.0304 190.406C63.0304 193.507 65.606 192.186 68.033 192.298C69.5106 192.367 74.9747 193.881 75.9354 192.419C77.0826 190.673 73.6326 191.452 73.196 190.516C72.3132 188.621 76.3613 187.821 75.8665 186.18C75.3717 184.538 71.2587 188.327 70.377 186.42C69.5609 184.656 73.7157 183.13 73.078 181.915C72.5369 180.885 67.0514 183.492 66.351 183.941ZM74.9574 167.786C74.9473 169.108 74.4914 170.865 72.8473 170.596C70.7941 170.259 70.1717 166.32 69.9842 164.83C71.2991 159.922 74.9795 164.776 74.9574 167.786ZM134.573 125.61C132.199 125.982 131.932 127.044 130.822 128.674C130.315 128.27 130.001 127.735 129.88 127.069C124.268 129.595 118.428 131.569 112.34 132.503C105.557 133.544 98.4819 131.969 91.59 131.327C90.6981 131.244 87.9604 130.142 87.2335 130.579C86.632 130.941 86.6421 133.981 86.593 134.568C86.2581 138.573 87.0223 142.111 87.6108 146.03C87.7678 147.073 87.6136 149.333 88.4366 150.224C89.0155 150.85 90.0457 150.622 90.7789 151.567C92.755 154.117 93.3715 159.057 94.2813 162.346L94.3039 162.426L94.3083 162.367C94.5898 159.014 97.2128 160.737 99.1648 161.616C102.099 162.938 105.174 163.644 108.348 164.089C110.901 164.447 113.796 165.301 116.415 165.165C119.165 165.022 122.548 163.934 125.225 163.151C127.762 162.409 129.161 160.805 130.912 158.739C132.585 156.765 134.404 155.414 136.21 153.653C140.756 149.217 139.512 140.025 135.562 135.684C138.757 134.045 144.3 130.442 139.439 126.788C138.183 125.843 136.088 125.373 134.573 125.61ZM94.3039 162.426L94.2994 162.486L94.3272 162.509L94.3039 162.426ZM109.874 154.81C111.134 154.906 112.039 155.853 111.708 157.158C111.289 158.806 108.421 159.839 106.987 159.931C103.186 160.385 106.781 154.577 109.874 154.81ZM97.8711 148.467C98.0072 149.424 97.8722 150.021 98.7025 150.332C99.3374 150.569 100.537 150.08 101.318 150.411C102.097 150.741 102.121 150.941 102.6 151.717C102.058 153.411 99.5723 155.327 97.578 154.308C95.0978 153.042 94.8668 148.046 95.5469 145.914C96.6991 142.3 97.6678 147.04 97.8711 148.467ZM318.397 129.387C317.363 129.762 316.45 130.827 315.525 131.407C313.063 132.949 310.371 133.767 308.013 135.455C309.697 137.271 310.579 139.732 312.223 141.479C313.252 142.572 314.503 142.694 315.74 143.287C319.356 145.021 323.612 147.46 327.607 148.289C325.268 145.554 323.784 143.08 322.395 139.758C321.899 138.57 321.276 137.313 320.904 136.079C320.371 134.312 320.658 132.442 320.206 130.698C319.719 128.815 320.391 128.663 318.397 129.387ZM91.0486 139.739C92.1003 140.98 92.9086 143.776 92.9978 145.36C91.8885 150.67 88.1743 143.343 88.2872 140.965C88.3923 138.772 89.5445 137.966 91.0486 139.739ZM101.111 136.833C102.914 138.369 103.502 140.935 103.689 143.055C103.893 145.352 103.367 146.329 101.077 144.852C99.0718 143.559 98.0687 140.116 97.9648 138.099C97.9648 135.799 99.365 135.345 101.111 136.833ZM137.37 130.257C137.82 132.654 132.507 135.119 133.374 131.364C133.2 128.968 136.892 127.716 137.37 130.257ZM388.265 86.8646C384.251 91.7611 379.391 94.8701 374.369 98.5701C369.92 101.848 365.684 105.389 360.867 108.11C359.452 108.909 357.136 109.374 356.88 110.859C356.64 112.255 359.233 116.004 359.832 117.518C361.855 122.622 363.349 127.861 364.93 133.128C369.644 125.786 374.399 118.321 380.177 111.682C385.276 105.824 390.507 99.6932 394.964 93.3803C392.266 91.738 390.031 89.473 388.265 86.8646ZM417.685 75.5727C413.215 76.9687 408.066 77.7545 403.407 77.2788C401.295 77.063 399.215 76.8834 397.083 76.7517C395.487 76.6534 392.787 75.8755 391.414 77.1048C390.115 78.267 390.272 80.5799 390.933 82.0245C391.361 82.9584 391.954 83.1093 392.342 83.8827C392.467 84.1319 392.097 84.5624 392.418 85.1482C393.302 86.7606 396.307 89.455 397.927 90.2759C400.004 91.3295 400.315 90.1041 401.934 89.0425C405.344 86.8081 411.072 86.7674 415.067 86.3652C415.148 87.2239 426.724 83.0957 427.867 82.3381C430.004 80.9217 432.507 74.4026 430.234 72.4704C427.49 70.1383 420.34 74.7427 417.685 75.5727ZM339.835 44.4979C338.428 46.7386 336.557 49.1442 334.478 50.8204C332.131 52.7136 329.084 53.4487 326.401 54.7441C323.97 55.917 321.809 57.0921 320.292 59.3554C319.242 60.9209 317.319 63.1175 318.196 65.1349C319.093 67.1987 322.628 68.6462 324.164 70.4399C326.279 72.9094 326.282 72.4247 329.449 71.7422C331.031 71.401 332.534 71.2947 334.151 71.3512C334.805 71.3738 337.014 72.0145 337.594 71.5846C338.336 71.0337 337.606 68.7467 337.7 67.8569C337.844 66.5033 338.325 65.1067 338.781 63.8304C340.591 58.7638 344.032 55.4226 347.377 51.5809C350.966 47.4589 355.883 44.5657 359.42 40.4245C361.373 38.1381 360.484 36.5218 357.804 35.4511C356.442 34.9076 354.847 34.9099 353.45 34.4766C352.005 34.0286 350.717 33.1461 349.169 33.1286C342.59 32.8647 342.381 40.4432 339.835 44.4979Z" fill="black"/>
</svg>
