<svg width="257" height="387" viewBox="0 0 257 387" fill="none" xmlns="http://www.w3.org/2000/svg">
<path fill-rule="evenodd" clip-rule="evenodd" d="M137.74 192.503C138.865 192.72 140.73 195.942 141.494 196.858C143.956 199.811 146.418 202.764 148.881 205.717C149.866 206.899 151.287 208.14 151.989 209.508C152.53 210.56 152.715 212.011 153.037 213.139C157.041 227.149 160.957 241.249 163.874 255.532C164.502 258.607 165.097 261.702 165.446 264.823C165.618 266.366 166.071 268.632 165.4 270.123C164.643 271.803 162.208 272.501 160.626 273.022C157.549 274.036 154.327 274.639 151.139 275.181C143.458 276.486 135.681 277.244 127.918 277.857C125.546 278.045 123.105 278.041 120.748 278.361C119.623 278.513 119.96 278.21 119.606 278.967C119.112 280.019 119.439 282.215 119.381 283.362C119.242 286.06 119.105 288.759 118.966 291.457L117.837 313.538C117.455 321.001 117.073 328.463 116.691 335.925C116.547 338.752 116.402 341.58 116.257 344.408C116.18 345.919 116.41 347.87 116.005 349.333C115.699 350.44 116.203 350.114 114.847 350.18C111.707 350.331 108.454 349.951 105.314 349.838C101.752 349.711 98.19 349.583 94.6273 349.456C93.61 349.419 92.4732 349.708 92.0632 348.978C91.5641 348.089 91.9442 345.645 91.909 344.652C91.8101 341.886 91.7113 339.12 91.6124 336.353C91.3411 328.76 91.0698 321.166 90.7984 313.572C90.4283 303.216 90.0576 292.859 89.6874 282.502C85.7264 283.3 81.765 284.098 77.8035 284.896C71.9503 286.075 66.0967 287.254 60.243 288.433C57.5585 288.974 54.3702 290.208 51.598 289.809C48.8446 289.414 47.7064 288.237 47.5517 285.621C47.3859 282.817 47.4505 279.99 47.488 277.184C47.5499 272.593 47.6815 268.003 47.8549 263.415C55.6757 262.71 63.4969 262.005 71.3177 261.299C75.4821 260.924 79.6469 260.549 83.8108 260.173C84.756 260.088 87.0858 260.271 87.5075 259.557C88.1636 258.449 87.4335 254.804 87.4138 253.55L87.2273 241.698L86.5437 198.087C88.4161 198.148 90.2886 198.204 92.1611 198.257C100.308 198.487 108.494 198.82 116.643 198.569C120.73 198.444 124.602 197.34 128.46 196.038C130.511 195.346 132.541 194.593 134.556 193.8C135.19 193.551 137.056 192.37 137.74 192.503ZM126.695 233.075L122.533 253.448L136.774 252.504L126.695 233.075Z" fill="#F45B69"/>
<path fill-rule="evenodd" clip-rule="evenodd" d="M245.649 67.8409C245.358 70.107 245.565 72.5776 243.009 73.1749C240.644 73.7282 238.048 73.573 235.637 73.7667C232.927 73.9847 230.225 74.2825 227.52 74.5507C224.111 74.8887 224.597 73.5772 223.851 70.6627C223.17 68.0013 222.083 65.345 221.179 62.7493C220.759 61.5428 220.257 60.433 219.684 59.2959C219.165 58.2667 219.412 56.8666 218.852 56.0015C216.943 53.0499 207.633 61.1213 206.768 59.5304C208.344 58.3028 211.07 56.9295 211.553 54.8289C212.121 52.3602 210.554 51.6231 208.585 52.5257C203.739 54.7477 198.146 56.4845 192.861 57.2943C194.57 56.1506 210.03 47.1372 204.842 44.4637C203.672 43.8611 202.111 44.9954 201.056 45.4244C199.382 46.1057 197.634 46.5624 195.887 47.0088C194.046 47.4791 192.2 47.9315 190.349 48.3592C189.051 48.6593 186.736 49.725 185.471 49.462C184.187 49.1947 186.462 48.3967 186.835 48.2087C188.459 47.3895 190.057 46.5094 191.643 45.6181C194.456 44.0365 197.055 42.2046 199.195 39.7593C200.809 37.9143 203.475 33.8851 202.351 31.3339C201.7 29.8551 200.272 28.4882 199.434 27.0872C198.454 25.4508 197.664 23.7066 196.814 22.0017C198.237 22.6281 199.835 22.7885 201.288 23.3507C202.741 23.9133 204.216 24.3686 205.728 24.7869C208.76 25.6257 211.784 25.7748 214.789 26.4552C218.191 27.2251 221.735 28.0859 225.191 28.5309C228.2 28.9177 230.906 29.742 233.484 31.3841C238.749 34.7385 242.402 39.5572 244.249 45.5163C245.331 49.0072 245.595 52.6495 245.722 56.2815C245.857 60.1108 246.139 64.0284 245.649 67.8409ZM216.1 68.1227C212.423 70.8052 208.137 72.9016 204.191 75.1837C201.933 76.489 199.628 77.7091 197.325 78.9329C195.691 79.8012 193.705 81.3992 191.906 81.8446C190.768 82.1264 190.853 82.148 190.133 81.1094C189.444 80.1177 188.843 79.0501 188.199 78.0288C187.011 76.1458 185.812 74.2698 184.613 72.3938C181.925 68.1883 179.242 63.9838 176.418 59.868C173.585 55.738 170.867 51.5321 168.122 47.3436C166.846 45.3963 165.578 43.4415 164.224 41.5477C163.19 40.1016 160.54 37.896 161.799 36.1934C162.968 34.6119 165.631 33.2981 167.206 32.101C169.131 30.6395 171.068 29.193 172.987 27.724C177.114 24.566 181.133 21.2707 185.256 18.1085C188.755 24.2514 192.872 30.0103 197.024 35.7213C193.269 38.1196 189.476 40.3994 185.519 42.4526C182.597 43.969 178.126 46.018 176.28 48.8946C174.461 51.7272 176.247 54.9953 179.489 55.0473C181.427 55.0783 183.359 54.5644 185.26 54.2709C186.632 54.0589 189.137 53.0691 190.373 53.7668C188.15 55.1866 180.084 59.3245 184.432 62.9523C187.54 65.5457 192.794 61.7613 196.152 62.5401C195.128 64.5057 194.065 67.6412 196.905 68.7102C199.269 69.6002 202.363 67.9417 204.49 67.0621C206.027 66.4267 207.555 65.7698 209.066 65.0764C210.268 64.5245 211.707 63.4066 212.992 63.1685C214.49 62.8904 217.541 67.0705 216.1 68.1227ZM147.75 212.995C149.854 212.611 150.934 211.741 151.596 214.297C152.19 216.587 152.778 218.793 153.543 221.04C150.257 221.324 147.358 222.894 144.962 225.103C143.256 226.677 139.862 230.434 140.704 233.07C142.747 239.475 153.071 225.106 154.297 223.571C155.799 225.767 156.352 228.643 157.098 231.156C157.629 232.944 159.601 236.371 156.994 236.806C153.335 237.416 146.471 238.78 146.905 243.967C147.417 250.089 155.198 250.054 159.564 250.329C162.025 250.484 162.036 252.458 162.387 254.667C162.544 255.655 163.033 256.99 162.195 257.713C161.451 258.355 159.172 258.373 158.204 258.581C155.38 259.188 152.559 259.806 149.736 260.412C146.531 261.101 144.836 260.137 141.84 259.258C140.731 258.932 139.616 259.07 139.535 257.827C139.485 257.064 140.231 255.885 140.475 255.13C141.442 252.145 142.265 249.073 142.543 245.938C142.947 241.384 142.442 234.556 136.839 233.667C134.174 233.244 133.661 233.106 132.458 230.602C131.156 227.895 129.09 225.387 129.59 222.268C129.951 220.008 129.341 215.732 130.783 213.857C131.449 212.991 132.748 212.473 133.634 211.838C134.764 211.026 135.852 210.158 136.905 209.25C137.79 208.486 138.87 206.994 139.874 206.443C141.1 205.768 141.138 206.228 142.019 207.281C143.319 208.836 145.386 213.427 147.75 212.995ZM153.696 223.113C152.967 224.586 151.282 225.955 150.209 227.185C149.129 228.421 148.108 229.728 146.904 230.849C145.579 232.082 140.872 235.062 141.909 231.051C142.716 227.932 145.735 225.405 148.393 223.849C148.907 223.547 154.929 220.622 153.696 223.113ZM158.845 237.964C159.311 240.052 159.562 242.204 159.961 244.307C160.165 245.382 161.295 247.979 160.834 249.013C160.054 250.766 153.032 248.691 151.576 248.088C148.111 246.652 146.521 242.967 149.716 240.342C150.928 239.348 158.378 235.877 158.845 237.964ZM163.448 263.04C163.839 265.033 164.984 266.881 163.092 268.388C161.521 269.639 158.948 270.493 157.013 270.938C154.375 271.545 153.527 270.066 152.131 268.163C150.63 266.117 149.031 264.14 147.373 262.219C152.581 261.052 157.788 259.885 162.995 258.719C162.992 260.171 163.168 261.617 163.448 263.04ZM150.971 272.291C148.255 272.15 145.333 272.968 142.579 273.183C139.14 273.452 135.71 273.843 132.267 274.074C133.149 271.258 134.733 268.746 135.973 266.085C137.216 263.416 138.089 263.127 140.949 262.921C143.599 262.73 145.468 261.817 147.423 264.067C149.458 266.407 151.301 268.951 153.159 271.432C152.527 271.855 151.771 272.332 150.971 272.291ZM131.559 272.865C130.889 273.354 128.823 271.965 128.126 271.696C126.772 271.172 126.471 271.003 125.764 269.681C125.157 268.544 124.191 267.252 124.001 265.954C123.75 264.244 124.506 261.991 124.781 260.291C125.515 262.061 127.922 262.266 129.548 262.556C130.778 262.775 134.422 262.426 135.349 263.303C136.374 264.271 134.488 266.972 133.996 267.99C133.41 269.204 132.685 272.044 131.559 272.865ZM130.246 274.269C129.44 274.4 127.119 275.202 127.165 273.728C127.217 272.044 130.411 273.861 130.246 274.269ZM126.157 274.181C126.009 275.599 122.961 275.481 122.891 274.234C122.773 272.126 126.391 271.916 126.157 274.181ZM122.671 235.944C121.892 238.166 117.145 238.961 115.322 239.645C113.657 240.269 108.684 243.153 106.967 242.107C112.778 238.11 118.733 234.193 123.656 229.089C123.857 230.35 123.551 231.403 123.179 232.596C122.844 233.673 123.016 234.96 122.671 235.944ZM121.226 244.046C120.39 249.488 119.569 255.001 118.438 260.389C116.282 259.73 114.503 258.393 112.238 257.927C110.171 257.502 108.035 257.492 105.951 257.802C101.509 258.464 97.5496 260.663 93.6743 262.805C93.3163 259.074 92.5751 255.08 92.6627 251.335C92.7353 248.224 98.0542 247.303 100.467 246.017C101.926 245.24 103.246 244.147 104.909 243.876C106.62 243.596 108.271 243.605 109.962 243.083C113.958 241.849 117.719 239.892 121.634 238.434C121.954 240.302 121.51 242.205 121.226 244.046ZM117.492 267.077C117.314 268.314 117.538 270.521 116.596 271.464C115.709 272.352 113.815 272.382 112.646 272.622C109.083 273.356 105.523 274.097 101.966 274.854C100.374 275.192 98.7819 275.516 97.1837 275.818C96.4214 275.962 94.5092 276.694 93.8673 276.087C93.2582 275.51 93.7118 273.668 93.7446 272.895C93.8102 271.352 93.8973 269.804 93.8003 268.26C93.6148 265.298 93.7797 264.163 96.5338 262.631C99.4599 261.003 102.482 259.888 105.775 259.285C109.11 258.674 112.287 259.008 115.461 260.289C116.344 260.645 117.668 261.085 118.08 262.038C118.639 263.335 117.68 265.763 117.492 267.077ZM113.481 314.82C112.175 315.64 109.333 315.5 107.833 315.666C105.41 315.934 102.973 315.781 100.566 315.407C98.7547 315.126 96.0512 314.736 94.6629 313.463C92.6903 311.654 94.9665 311.571 96.4762 311.699C100.865 312.068 105.309 311.81 109.694 311.493C110.548 311.431 112.842 310.681 113.665 311.032C114.718 311.481 114.395 314.246 113.481 314.82ZM110.992 344.048C102.815 343.253 98.0744 336.476 95.109 329.548C93.5173 325.828 94.0913 321.925 93.9343 317.991C93.9057 317.273 93.455 315.49 94.193 314.954C94.8864 314.449 97.6916 316.008 98.4502 316.194C102.34 317.148 106.641 317.24 110.539 316.313C112.227 315.912 113.173 315.165 113.709 316.84C114.141 318.189 113.432 320.674 113.355 322.088C113.222 324.533 113.604 344.302 110.992 344.048ZM94.6573 344.056C94.6259 342.869 94.0276 330.872 94.6081 330.836C96.3333 334.561 98.1053 337.893 101.246 340.633C102.85 342.034 104.654 343.295 106.66 344.047C107.414 344.329 111.686 344.544 111.895 345.479C112.261 347.118 109.345 346.457 108.48 346.323C107.786 346.216 107.162 345.92 106.481 345.796C105.184 345.561 103.958 345.878 102.656 345.904C100.677 345.944 98.7332 345.736 96.7531 345.908C94.9431 346.064 94.7056 345.856 94.6573 344.056ZM95.8643 290.248C102.864 287.983 108.715 292.272 112.409 297.885C114.516 301.086 114.987 303.325 114.618 307.115C114.486 308.472 114.73 309.391 113.483 309.944C112.25 310.491 109.447 310.085 108.112 310.148C104.273 310.327 100.449 310.566 96.6102 310.338C94.1166 310.19 93.7642 309.767 93.8074 307.345C93.8589 304.428 93.6167 301.525 93.4517 298.604C93.2732 295.443 92.189 291.436 95.8643 290.248ZM93.5736 286.047C93.5778 283.904 93.4494 281.705 93.5801 279.566C93.7104 277.445 94.6123 277.55 96.613 277.188C100.946 276.404 105.273 275.526 109.547 274.463C111.237 274.043 113.147 273.237 114.909 273.23C116.757 273.223 116.659 274.174 116.536 275.812C116.261 279.44 115.597 283.014 115.396 286.623C115.178 290.517 115.063 294.462 115.081 298.361C115.087 299.677 115.406 300.652 114.286 299.42C113.163 298.186 112.614 296.22 111.612 294.834C109.559 291.995 106.508 289.711 103.122 288.749C101.251 288.217 99.2818 288.125 97.3734 288.51C96.7943 288.627 93.894 290.012 93.5248 289.738C93.2751 289.553 93.5731 286.134 93.5736 286.047ZM119.182 360.315C121.959 362.305 125.034 363.913 128.146 365.309C129.897 366.094 136.83 367.747 137.051 369.515C137.169 370.457 136.02 371.514 135.268 371.626C134.314 371.768 132.741 371.143 131.768 371.025C128.233 370.596 124.704 370.593 121.254 369.608C114.367 367.64 107.226 367.086 100.266 365.371C98.6104 364.963 96.9508 364.58 95.2866 364.211C93.7057 363.86 92.9972 363.92 92.9415 362.229C92.8183 358.518 93.8819 354.716 93.8903 350.958C99.5203 351.602 105.17 351.593 110.815 352.123C113.234 352.349 113.178 352.808 114.238 354.924C115.338 357.119 117.21 358.902 119.182 360.315ZM91.7317 239.743C91.6605 238.37 91.6047 236.992 91.4806 235.622C91.3972 234.701 90.5571 232.129 91.0308 231.412C91.5935 230.561 92.1604 231.08 93.1673 231.056C94.4947 231.025 95.6061 230.491 96.7006 229.792C98.7735 228.469 100.315 226.727 101.66 224.694C102.843 222.904 102.623 220.46 102.608 218.318C102.571 212.778 102.974 207.374 102.637 201.81C102.482 199.254 104.661 200.822 106.422 201.153C109.301 201.694 112.43 201.319 115.356 201.326C115.247 202.007 109.264 203.699 108.297 204.342C105.822 205.99 104.379 208.625 104.605 211.63C105.059 217.675 111.71 218.685 116.571 218.697C112.538 222.266 108.578 225.668 105.409 230.07C103.072 233.316 98.9567 239.716 102.777 243.307C99.3999 245.227 96.0531 247.362 92.234 248.286C92.063 245.439 91.8798 242.592 91.7317 239.743ZM90.1986 129.399C91.5733 130.282 92.1515 129.033 93.1978 128.386C94.6713 127.474 95.1591 127.563 95.3461 125.527C95.6918 121.75 94.1044 118.331 92.1112 115.241C91.2055 113.836 90.3017 112.163 89.023 111.065C87.8573 110.064 86.6789 110.408 85.5989 109.373C85.1749 108.966 85.2658 108.392 84.5648 108.408C84.1033 108.419 82.9816 109.85 82.6002 110.166C81.3961 111.164 79.923 111.924 78.3449 111.101C76.0472 109.903 76.7851 105.557 78.5698 104.149C79.9441 103.065 81.568 103.232 83.1325 103.057C84.3057 102.926 84.5498 102.977 84.0672 101.633C83.729 100.692 82.9493 99.9582 82.5642 99.0377C81.8239 97.2705 81.985 95.1226 81.6655 93.2522C81.3783 91.5764 80.7068 89.7637 80.7312 88.0616C80.7631 85.8944 81.4706 85.3313 83.3466 84.7236C85.1641 84.1351 86.6691 82.8377 88.2171 81.7476C89.9695 80.5135 91.8887 79.6986 93.6893 78.5718C94.9117 77.8066 95.7007 76.2597 97.045 76.9823C98.6423 77.8408 100.331 80.3264 101.69 81.5966C99.7021 82.8593 99.2401 83.4117 99.5138 85.8836C99.7654 88.1498 100.226 90.1692 101.957 91.748C102.622 92.3547 103.862 92.8405 104.378 93.5401C104.979 94.355 104.588 93.6367 104.512 94.5566C104.472 95.0527 104.08 95.3772 104.165 95.9506C104.546 98.4976 107.47 96.9943 108.674 96.1096C112.978 92.9483 104.942 90.4379 103.033 89.2863C101.715 88.4906 101.063 85.9511 103.152 86.6259C104.541 87.0746 107.679 90.8791 107.998 87.4113C111.442 89.4139 113.568 93.669 116.457 96.3595C118.539 98.2997 121.338 100.452 119.684 103.551C117.578 107.501 113.4 109.294 109.586 110.998C105.886 112.651 106.654 117.329 108.632 120.192C109.775 121.847 111.273 122.816 113.075 123.62C114.916 124.442 115.298 125.408 115.7 127.314C116.147 129.429 115.672 130.281 113.843 131.374C112.057 132.441 110.189 133.475 108.282 134.31C104.158 136.116 99.8806 136.23 95.4946 136.845C93.9573 137.061 92.4832 137.51 91.6445 135.985C90.7014 134.268 90.632 131.312 90.1986 129.399ZM89.5356 121.184C88.5034 120.639 86.0117 122.448 84.7068 122.527C82.596 122.655 81.2101 122.607 79.3364 123.727C75.7942 125.846 72.855 128.573 70.0147 131.531C66.8154 134.863 63.6345 138.211 60.446 141.553C59.001 143.066 57.5485 144.572 56.0806 146.062C54.9238 147.237 53.7927 148.89 52.3608 149.728C52.4353 148.732 53.0454 148.027 53.2618 147.104C53.3879 146.564 53.1677 146.106 53.2492 145.59C53.2759 145.422 53.7262 144.839 53.7946 144.647C53.9773 144.142 54.2008 143.643 54.4177 143.119C54.6201 142.63 54.5906 142.122 54.7959 141.611C55.0072 141.084 55.5853 140.735 55.7859 140.216C56.3739 138.697 55.4007 137.993 53.8442 138.028C54.4533 134.989 54.7195 133.502 57.8948 132.43C60.9286 131.406 63.8922 130.256 66.6791 128.656C69.1535 127.235 71.2179 125.188 73.5967 123.604C75.7262 122.186 78.3772 120.701 78.3552 117.793C79.5627 118.613 80.6942 119.303 82.0755 118.487C83.2412 117.797 83.3958 117.243 84.7434 117.113C85.8435 117.007 86.5252 116.979 87.5068 117.464C88.6623 118.033 88.8202 118.429 89.493 116.752C90.2577 117.397 92.1909 120.08 92.1262 121.142C92.0911 121.727 92.0025 121.991 91.2781 122.145C90.2506 122.364 90.2905 121.582 89.5356 121.184ZM84.7223 279.993C84.22 280.763 82.1026 280.621 81.285 280.61C78.7924 280.578 77.9209 278.484 76.8273 276.461C75.103 273.271 72.5261 266.645 75.3547 263.297C77.5873 260.655 81.9358 263.984 83.4591 265.979C84.7743 267.703 84.3835 270.289 84.5058 272.358C84.6089 274.102 85.7147 278.472 84.7223 279.993ZM77.9124 281.148C76.9159 282.145 73.6815 281.934 72.3611 282.148C70.0043 282.53 67.6607 282.989 65.3742 283.686C63.672 284.205 61.9894 285.6 61.5406 283.225C61.1638 281.228 61.3513 278.833 61.3873 276.818C61.4262 274.644 61.6535 272.497 61.8423 270.333C61.9702 268.869 61.6502 266.176 62.844 265.053C63.873 264.085 66.3745 263.991 67.7103 263.671C69.9036 263.144 72.1953 262.452 74.4752 262.688C73.145 266.302 73.0321 270.092 74.4583 273.693C74.865 274.72 78.5281 280.532 77.9124 281.148ZM61.1507 266.752C60.595 272.187 60.0361 277.657 60.5711 283.12C60.6035 283.446 60.9924 284.939 60.8232 285.172C60.6484 285.414 59.2644 285.539 58.95 285.614C57.7018 285.91 56.4554 286.224 55.1993 286.487C52.7544 286.999 52.4353 285.453 51.9555 283.185C50.928 278.326 52.9203 273.057 54.1272 268.39C54.7153 266.118 55.151 265.856 57.3836 265.668C58.9373 265.537 61.3869 264.442 61.1507 266.752ZM51.7095 287.031C50.7753 287.882 49.8415 283.869 49.759 283.46C49.4324 281.836 49.6142 280.188 49.6189 278.539C49.6269 275.962 49.4301 273.398 49.4263 270.833C49.424 269.446 48.3857 266.611 50.0256 265.877C50.5068 265.661 52.4185 265.751 52.8523 266.034C53.7533 266.623 53.3982 267.005 53.1311 268.029C52.5332 270.329 52.0164 272.639 51.4959 274.958C50.9852 277.231 50.4815 279.419 50.7247 281.766C50.8048 282.543 52.3051 286.489 51.7095 287.031ZM81.5062 261.704C83.7838 261.062 83.9056 262.808 83.9018 264.48C83.5547 264.214 80.3179 262.039 81.5062 261.704ZM51.0405 139.004C50.4824 139.924 46.9477 140.175 45.9375 140.418C43.9504 140.894 41.9624 141.367 39.9805 141.863C36.2672 142.793 32.6454 143.841 28.8389 144.327C30.9291 140.978 31.5795 138.085 31.1906 133.905C30.7 128.627 30.0764 123.403 28.8624 118.237C27.6657 113.142 26.2802 108.082 24.9458 103.022C24.2903 100.536 23.5814 98.0972 22.7094 95.6782C22.0104 93.7393 20.9187 91.2988 22.105 89.3112C25.1159 91.5098 27.5308 93.8786 29.248 97.2185C31.088 100.799 32.6941 104.474 34.8293 107.9C35.8057 109.466 36.9457 110.894 37.9901 112.41C38.6114 113.312 39.064 114.613 39.8554 115.374C40.7676 116.251 41.7403 116.665 42.2618 115.185C42.8213 113.597 41.0366 110.454 40.5099 108.963C39.2378 105.362 37.9765 101.769 36.9954 98.0756C36.2017 95.0902 34.8897 91.4807 35.3541 88.3307C35.8137 85.2122 37.9278 87.4441 38.9975 88.8939C41.2029 91.883 42.5233 95.3673 43.972 98.7559C45.3036 101.869 46.8568 104.837 48.3304 107.879C48.843 108.937 49.5186 111.67 50.8615 111.985C52.8134 112.443 52.648 109.692 52.4616 108.575C51.2246 101.175 47.9954 94.0887 47.3254 86.5598C47.293 86.2001 46.8264 83.4028 47.2017 83.1692C47.9293 82.7163 48.9109 85.554 49.2249 86.2494C50.8577 89.8659 51.9949 93.6784 53.0383 97.4989C53.9258 100.748 54.7284 104.022 55.7245 107.239C56.2718 109.009 56.8991 110.748 57.5176 112.493C58.0771 114.074 58.6449 116.775 60.104 117.816C62.174 119.294 69.5817 115.781 70.3323 118.921C70.8665 121.154 63.9976 122.951 62.5348 123.629C60.6091 124.522 58.7199 125.499 56.7933 126.392C55.3347 127.068 53.2384 127.345 52.1832 128.616C51.0653 129.964 50.8863 131.855 50.853 133.526C50.8273 134.791 51.703 137.912 51.0405 139.004ZM46.3592 163.38C46.2613 164.081 45.7042 165.01 45.4535 165.678C44.9433 167.038 44.5094 168.663 43.7996 169.934C43.1891 171.028 42.288 172.007 41.6981 173.117C41.1387 174.172 41.0642 175.387 40.4106 176.442C39.6628 177.648 38.4268 178.516 37.6841 179.714C37.3182 180.305 36.9401 180.981 36.4228 181.61C34.5913 183.841 32.7728 185.945 31.2997 188.335C30.923 188.947 29.0831 191.617 28.3507 191.761C26.82 192.062 28.6019 189.884 28.9013 189.434C31.0702 186.176 32.9963 182.746 35.0898 179.438C37.1177 176.234 39.1928 173.056 41.1443 169.804C42.736 167.153 43.8366 163.347 46.4234 161.479C46.4333 162.114 46.4122 162.748 46.3592 163.38ZM117.082 133.438C118.342 138.622 119.849 143.646 121.269 148.783C122.587 153.55 124.341 158.652 124.887 163.566C125.428 168.435 126.672 173.36 128.344 177.981C129.117 180.119 129.912 182.265 130.751 184.379C131.212 185.54 131.728 186.674 132.251 187.808C132.657 188.689 133.731 190.116 133.772 191.049C133.805 191.796 134.064 191.498 133.327 192.06C132.564 192.641 131.242 192.43 130.353 192.533C128.035 192.801 125.774 193.674 123.514 194.239C119.155 195.33 113.959 196.195 109.492 195.436C107.613 195.117 105.662 194.84 103.804 194.425C101.518 193.913 101.048 192.966 100.579 190.717C99.5531 185.801 98.6694 180.897 97.8223 175.948C96.8149 170.061 95.7246 164.181 94.9473 158.258C94.162 152.265 93.5979 146.267 92.3675 140.34C97.3308 141.17 102.005 142.109 106.983 140.747C111.391 139.542 114.573 137.186 117.082 133.438ZM136.511 197.619C137.62 199.908 134.946 201.966 133.65 203.729C131.941 206.052 130.344 208.48 128.356 210.582C127.76 208.194 127.237 205.506 125.645 203.544C123.613 201.039 121.241 202.063 118.751 200.878C121.362 199.606 124.696 200.092 127.466 198.958C130.199 197.839 132.958 196.962 135.5 195.509C135.838 196.212 136.171 196.917 136.511 197.619ZM126.827 251.024C125.158 251.117 126.275 247.594 126.383 246.718C126.681 244.312 126.982 241.906 127.243 239.496C128.62 243.13 129.997 246.764 131.373 250.398C129.86 250.614 128.357 250.939 126.827 251.024ZM124.112 268.446C124.34 268.952 125.402 270.64 124.564 270.951C123.415 271.378 123.276 268.582 124.112 268.446ZM122.121 229.294C116.804 233.542 111.525 237.802 105.773 241.459C104.512 242.261 103.243 242.596 102.407 241.007C101.751 239.757 102.445 238.35 102.866 237.126C103.94 234.008 105.811 231.297 107.884 228.759C112.025 223.69 116.953 219.361 123.242 217.362C124.271 217.035 125.86 216.049 126.22 217.411C126.432 218.213 125.534 220.214 125.352 220.966C124.601 224.072 124.765 227.182 122.121 229.294ZM137.425 260.278C137.542 263.886 127.689 260.976 126.462 260.331C127.75 259.899 137.372 258.656 137.425 260.278ZM141.084 260.301C141.669 260.457 143.914 260.655 143.076 261.423C142.325 262.111 138.926 261.835 138.025 261.919C138.63 259.929 139.09 259.769 141.084 260.301ZM139.259 255.468C139.038 256.271 138.949 257.495 138.23 258.045C137.335 258.731 135.432 258.314 134.418 258.32C132.697 258.329 130.977 258.417 129.264 258.588C128.609 258.654 125.954 259.454 125.34 258.908C124.889 258.507 125.057 256.624 125.385 256.201C126.06 255.331 127.614 255.632 128.587 255.598C132.15 255.47 135.694 255.46 139.259 255.468ZM136.971 242.134C136.468 241.386 136.378 241.394 136.164 240.264C135.935 239.055 135.351 238.02 135.008 236.852C134.254 234.28 136.665 234.509 138.433 235.452C143.02 237.898 141.913 246.445 140.779 250.446C139.129 249.233 138.521 248.682 137.953 246.724C137.738 245.98 137.496 245.249 137.271 244.509C137.107 243.964 137.221 242.506 136.971 242.134ZM137.368 200.535C138.649 200.38 139.821 204.357 139.455 205.218C138.706 206.979 135.845 208.552 134.388 209.676C133.417 210.423 132.453 211.281 131.416 211.934C130.454 212.539 129.9 212.2 129.004 212.49C127.709 212.91 127.395 214.282 126.069 214.872C124.203 215.702 121.942 215.934 119.993 216.683C117.629 217.592 115.462 217.617 112.983 217.186C109.418 216.567 105.239 214.796 105.56 210.46C106.127 202.81 121.306 198.89 125.446 205.377C126.523 207.065 126.507 209.033 127.206 210.847C127.964 212.81 128.698 212.038 129.838 210.593C131.329 208.701 132.714 206.708 134.146 204.772C134.61 204.146 136.444 200.648 137.368 200.535ZM44.3431 275.021C44.2705 276.322 44.3482 277.642 43.8961 278.883C43.4407 280.135 42.5172 281.147 41.9854 282.364C40.9072 284.83 40.9152 287.814 40.9583 290.456C41.0586 296.603 42.513 302.574 43.2823 308.648C40.7217 308.642 38.0749 308.671 35.593 307.938C33.3763 307.284 33.0226 305.662 32.3957 303.619C30.6353 297.88 28.734 292.165 28.1656 286.155C27.8953 283.291 27.7814 280.404 27.6521 277.53C27.5392 275.01 28.1047 273.91 30.3781 272.662C35.3194 269.949 40.4415 267.691 45.3322 264.849C44.8322 268.221 44.5333 271.619 44.3431 275.021ZM255.289 73.6002C254.086 73.3794 252.871 73.2411 251.657 73.0962C251.024 73.0202 249.05 73.1257 248.576 72.7126C248.012 72.2208 248.988 68.502 249.039 67.704C249.344 62.9049 248.989 57.9577 248.549 53.177C247.753 44.5223 245.034 36.5043 238.76 30.2724C235.637 27.1702 232.126 24.709 227.861 23.5213C225.376 22.8293 222.816 22.4603 220.325 21.7893C218.317 21.2472 216.442 20.6269 214.355 20.4122C210.193 19.9836 206.388 18.4095 202.326 17.499C199.338 16.8289 194.531 15.2399 192.594 18.6173C191.069 16.8271 189.535 15.4828 187.611 14.1474C185.769 12.8683 185.468 11.5905 183.212 13.0675C178.829 15.9376 174.723 19.4388 170.629 22.7041C166.805 25.7537 163.106 28.9473 159.098 31.7517C155.011 34.6124 155.786 39.4667 157.708 43.4912C161.324 51.066 166.902 57.5418 171.784 64.0349C174.842 68.1025 177.91 72.1753 180.956 76.2508C183.868 80.1463 186.387 84.6547 189.789 88.1544C191.935 90.3605 194.495 87.4755 196.431 86.1424C198.834 84.4868 201.195 82.7698 203.601 81.1188C208.612 77.68 213.973 74.4592 219.262 71.4659C219.647 72.5574 220.031 73.649 220.416 74.7405C219.255 74.8278 217.685 74.568 217.094 75.8181C216.249 77.6036 218.322 77.838 218.685 78.8616C219.01 79.7759 217.679 82.1907 217.285 83.0145C216.4 84.8708 215.164 86.4711 213.803 87.9992C208.416 94.0465 201.599 98.3719 194.683 102.495C187.282 106.906 179.35 109.599 171.247 112.442C167.127 113.887 162.85 114.559 158.599 115.484C154.502 116.376 150.408 117.547 146.222 117.884C137.657 118.572 128.568 119.088 120.107 117.239C119.18 117.037 118.2 116.598 117.258 116.515C116.503 116.448 115.943 116.765 115.23 116.806C113.699 116.893 112.821 115.523 111.605 116.796C110.996 117.433 110.986 118.503 110.138 117.314C109.058 115.802 111.816 115.509 112.838 115.078C116.279 113.628 119.045 110.707 121.231 107.755C123.416 104.806 123.73 101.655 122.4 98.2013C121.07 94.7488 118.046 92.4086 115.775 89.6052C114.677 88.2477 113.666 86.8115 112.46 85.5441C111.816 84.8671 110.779 84.2191 110.739 83.5364C110.692 82.743 111.166 82.3487 110.883 81.3842C110.809 81.1333 110.494 80.9908 110.427 80.7151C110.321 80.2757 110.485 79.8988 110.43 79.4707C110.302 78.4888 109.918 77.8722 109.373 77.0676C109.034 76.565 108.538 75.5588 108.071 75.1822C107.253 74.5221 106.138 74.7912 105.306 74.1221C103.99 73.0638 103.527 70.8338 102.363 69.549C100.724 67.741 100.374 69.5678 98.6376 68.9915C97.1528 68.4983 97.1701 66.2622 95.9702 65.5058C94.2801 64.4405 92.8567 66.4005 91.3559 66.837C89.3815 67.4114 90.14 65.1818 88.3802 64.9788C86.7909 64.795 84.5897 68.0219 83.7969 69.1678C82.9896 68.2258 82.1064 66.6209 80.6534 67.1957C79.1283 67.7996 78.857 70.6092 77.7424 71.6117C77.3539 71.9601 77.4359 72.2175 76.958 72.3778C76.3409 72.5846 75.5186 71.6881 74.7207 71.9615C73.1113 72.5129 73.3076 74.6627 73.3043 76.0553C71.4053 75.7777 70.0807 75.6361 69.4449 77.6847C68.8227 79.6896 68.5865 78.8049 66.5844 79.4561C64.8583 80.0174 64.617 81.658 64.3321 83.2626C64.156 84.2603 64.319 84.6678 64.587 85.5774C64.9253 86.7234 64.9253 86.7089 64.3738 87.8028C63.4129 89.7111 63.3552 91.8136 63.2015 93.9138C63.0385 96.155 62.6468 98.1952 63.2831 100.384C63.6766 101.739 63.7066 103.582 65.0321 104.34C65.5579 104.641 66.4509 104.476 66.8984 104.775C67.7525 105.344 67.4925 106.21 68.0613 107.042C68.4877 107.664 69.175 107.724 69.6525 108.228C70.1716 108.777 70.2025 109.447 70.4982 110.117C71.3734 112.101 72.1967 113.061 69.3437 113.174C67.5838 113.244 65.7064 113.772 63.9536 113.61C61.8849 113.419 61.3705 112.262 60.7122 110.5C57.3939 101.62 55.6107 91.9955 51.2405 83.5514C50.281 81.6974 46.3424 74.123 44.6776 79.6418C43.2739 84.2964 45.1157 89.977 45.8218 94.6101C43.6061 92.6112 42.7866 89.0111 41.104 86.5705C39.8615 84.7677 35.9702 80.34 33.6893 82.8771C31.8915 84.8769 32.3408 89.1171 32.6726 91.5079C33.1969 95.2899 34.4043 98.9351 35.2669 102.644C34.1808 101.223 33.6453 99.4865 32.8919 97.8857C31.9468 95.8784 30.7675 93.9733 29.4237 92.2094C28.2495 90.6677 26.9366 89.2348 25.5132 87.9205C24.4252 86.9152 22.4766 84.7152 20.9313 84.5961C16.9548 84.2908 18.2053 91.5918 18.8111 93.6793C20.0664 98.0057 21.4275 102.213 22.4021 106.626C24.3072 115.249 26.6148 123.673 28.018 132.405C28.3287 134.342 28.7031 135.887 27.9379 137.748C27.2637 139.388 26.5642 141.349 25.3202 142.609C22.5042 145.464 20.1662 148.513 18.0615 151.953C15.8068 155.638 13.4861 159.365 11.6457 163.276C10.7995 165.076 10.1075 167.022 9.13476 168.754C8.25671 170.316 7.20108 171.55 6.57697 173.28C3.59469 181.545 1.38644 189.666 0.375317 198.418C-0.454945 205.603 0.318623 215.161 8.98623 216.842C12.9679 217.614 16.5429 215.847 20.1334 214.388C23.8471 212.88 26.5323 210.428 29.5614 207.822C33.3253 204.583 37.2329 201.545 41.0366 198.361C44.8421 195.175 48.3571 191.642 52.142 188.421C55.8805 185.24 59.2625 181.861 62.4954 178.167C65.7026 174.502 68.3077 170.442 71.4128 166.726C71.4011 171.537 70.6875 176.304 70.4874 181.109C70.3042 185.514 70.3 189.915 70.4776 194.318C70.6552 198.719 69.4936 202.907 69.4843 207.298C69.4744 211.582 69.3048 215.84 69.2111 220.119C69.1689 222.038 68.7932 224.191 69.5096 226.043C70.0446 227.426 71.7262 227.858 73.1609 228.231C75.3781 228.807 82.0488 227.698 83.0388 230.068C83.5795 231.362 83.035 233.717 83.0772 235.147C83.1475 237.503 83.2337 239.858 83.3143 242.213C83.3977 244.646 83.4787 247.078 83.5673 249.51C83.646 251.653 84.0626 254.041 83.8044 256.162C83.5837 257.981 82.5243 257.743 80.8455 257.836C78.3116 257.976 75.7768 258.089 73.2415 258.2C69.5227 258.363 65.6417 258.288 62.0766 258.728C60.5791 258.912 58.9429 258.834 57.3635 259.134C55.3825 259.511 53.5528 259.607 51.5437 259.707C49.9239 259.787 47.8417 259.669 46.5691 260.868C46.1278 261.283 46.0289 261.779 45.7159 262.242C45.1298 263.109 45.4559 262.881 44.494 263.076C40.7372 263.838 37.1692 264.697 33.4953 265.978C31.6563 266.62 29.9499 267.481 28.1024 268.085C26.4831 268.614 25.2963 269.265 24.496 270.856C23.066 273.697 23.4282 277.808 23.5317 280.87C23.6948 285.648 24.7551 290.196 25.8988 294.816C27.0885 299.623 28.0213 304.558 30.3355 308.974C31.0959 310.426 31.9168 312.277 33.47 313.033C35.4754 314.009 38.5594 313.418 40.7479 313.421C42.2168 313.424 46.1512 313.929 47.249 312.696C48.3121 311.502 47.2424 308.136 47.0925 306.654C46.5663 301.463 45.6194 296.223 45.6321 290.997C46.8301 292.769 48.9076 295.827 50.9866 293.112C51.4982 292.444 51.2986 292.134 52.2071 291.747C52.7099 291.532 53.7693 291.401 54.3165 291.438C55.061 291.488 55.3365 291.788 56.0206 291.641C56.626 291.511 57.3068 290.969 58.0012 290.804C66.6069 288.756 75.163 286.55 83.8058 284.726C86.0909 284.243 85.7662 285.999 85.9171 287.977C86.0839 290.164 85.7657 292.372 86.0689 294.535C86.3327 296.417 86.5379 298.25 86.1663 300.143C85.7282 302.376 86.0103 304.239 86.4465 306.449C88.1276 314.975 87.8273 324.222 88.2064 332.887C88.4036 337.4 87.9801 342.008 88.4041 346.496C88.5643 348.192 89.5099 349.129 89.8931 350.671C90.3331 352.442 89.1331 354.697 88.7681 356.412C88.0349 359.856 86.7464 364.785 89.1032 367.781C90.3757 369.4 92.0442 369.634 93.9282 370.181C96.1829 370.836 98.4052 371.6 100.671 372.22C108.947 374.488 117.891 374.931 126.374 376.181C128.452 376.486 130.378 376.458 132.469 376.313C133.757 376.223 136.931 376.648 138.003 375.876C138.577 375.463 138.286 374.946 138.578 374.441C138.992 373.723 139.494 373.432 140.2 372.985C141.368 372.246 142.72 371.814 142.917 370.289C143.399 366.551 138.733 364.571 136.238 362.955C133.049 360.889 129.198 360.092 125.814 358.406C123.947 357.475 122.146 356.421 120.347 355.366C119.567 354.908 117.986 354.39 117.442 353.669C116.887 352.934 117.43 351.885 117.66 350.834C118.608 346.493 118.288 342.053 118.778 337.666C119.269 333.272 119.135 328.85 119.297 324.433C119.464 319.884 119.839 315.347 120.127 310.805C120.393 306.61 120.66 302.347 120.705 298.148C120.746 294.254 121.277 290.433 121.402 286.514C121.445 285.184 121.206 282.771 122.089 281.644C122.863 280.656 125.425 280.78 126.62 280.606C129.842 280.138 132.908 279.728 136.094 279.446C143.673 278.774 152.107 278.28 159.274 275.636C162.229 274.546 166.162 273.056 167.143 269.659C168.271 265.754 166.799 260.955 166.75 256.962C166.698 252.7 165.463 248.541 164.537 244.41C163.54 239.964 162.913 235.441 161.835 231.011C160.847 226.947 159.243 223.347 157.728 219.488C157.112 217.923 153.61 212.53 154.697 211.199C155.282 210.483 157.39 210.302 158.245 209.974C160.088 209.268 161.935 208.465 163.635 207.46C165.904 206.118 170.873 203.897 171.102 200.914C171.32 198.064 168.521 195.183 167.099 192.944C164.806 189.337 161.915 186.183 159.733 182.504C155.321 175.069 151.812 166.926 148.596 158.914C146.913 154.723 146.364 150.776 146.087 146.301C150.973 146.313 155.946 146.915 160.801 146.231C166.085 145.487 171.375 144.233 176.613 143.2C186.15 141.319 195.308 139.194 204.144 134.957C212.418 130.99 220.813 126.648 227.664 120.35C231.206 117.094 234.819 113.775 237.878 110.051C241.02 106.226 243.384 101.88 245.808 97.5851C248.484 92.8452 250.614 87.8637 252.298 82.6788C252.637 81.6365 252.639 80.309 253.072 79.3244C253.561 78.2127 254.451 78.1836 255.38 77.5979C256.687 76.7741 257.557 74.0171 255.289 73.6002Z" fill="black"/>
<path fill-rule="evenodd" clip-rule="evenodd" d="M141.535 20.539C142.652 21.4994 147.466 24.8824 149.021 24.0598C150.939 23.0443 147.902 19.9854 147.084 19.2312C146.043 18.2718 142.324 15.3692 140.9 15.6387C138.055 16.1776 140.53 19.6746 141.535 20.539Z" fill="black"/>
<path fill-rule="evenodd" clip-rule="evenodd" d="M143.912 55.2594C144.544 54.0163 146.222 53.5593 146.998 52.3563C147.932 50.9101 148.361 49.6445 148.017 47.8711C145.627 48.6764 142.908 51.1136 141.308 53.0196C139.972 54.6124 138.073 57.9408 141.561 57.9492C141.531 57.4754 141.5 57.0011 141.47 56.5278C142.516 56.6799 143.437 56.1963 143.912 55.2594Z" fill="black"/>
<path fill-rule="evenodd" clip-rule="evenodd" d="M132.527 34.5769C134.067 35.0202 135.339 34.9574 136.913 34.9921C138.056 35.0175 139.617 35.646 140.543 34.9377C139.721 34.4615 140.759 34.4351 140.556 33.9708C140.385 33.5837 140.061 33.7105 139.797 33.3972C138.857 32.2806 138.039 32.2942 136.548 32.0621C135.392 31.8812 133.693 31.4643 132.582 32.0392C131.414 32.6445 130.962 34.1266 132.527 34.5769Z" fill="black"/>
<path fill-rule="evenodd" clip-rule="evenodd" d="M154.46 68.8232C155.456 67.9867 156.542 65.5646 156.744 64.3151C156.823 63.8255 156.47 63.4503 156.512 63.09C156.593 62.4034 158.003 61.0758 156.526 60.5124C155.234 60.0191 154.02 63.8509 153.691 64.687C153.354 65.542 152.437 67.2078 152.719 68.0351C152.952 68.7213 153.787 69.3876 154.46 68.8232Z" fill="black"/>
<path fill-rule="evenodd" clip-rule="evenodd" d="M166.381 16.9627C167.282 16.1251 167.853 15.1752 167.76 14.0235C167.686 13.1162 167.007 9.98812 166.243 10.0801C163.706 10.3866 164.846 18.389 166.381 16.9627Z" fill="black"/>
<path fill-rule="evenodd" clip-rule="evenodd" d="M112.825 156.814C112.616 156.049 111.857 151.373 110.545 151.691C109.548 151.933 110.584 156.049 110.63 156.59C110.727 157.723 108.552 157.686 107.541 157.533C105.937 157.29 106.066 156.35 105.826 154.891C105.736 154.34 105.389 151.848 104.24 152.761C103.464 153.377 104.019 156.45 104.083 157.151C104.307 159.579 104.57 163.725 106.012 165.93C106.587 166.809 107.105 167.243 107.709 166.116C108.32 164.975 106.936 161.496 106.694 160.329C107.836 160.44 111.121 160.07 111.809 161.256C112.437 162.339 111.432 165.434 113.447 165.685C114.642 165.834 114.425 164.449 114.31 163.383C114.069 161.148 113.414 158.973 112.825 156.814Z" fill="black"/>
<path fill-rule="evenodd" clip-rule="evenodd" d="M115.885 155.732C114.562 156.33 116.223 165.052 118.159 164.771C120.418 164.442 117.146 155.162 115.885 155.732Z" fill="black"/>
<path fill-rule="evenodd" clip-rule="evenodd" d="M114.411 152.844C114.248 154.808 116.797 155.54 116.918 153.406C117.011 151.759 114.583 150.78 114.411 152.844Z" fill="black"/>
<path fill-rule="evenodd" clip-rule="evenodd" d="M100.416 100.779C101.58 105.121 112.174 106.968 110.747 101.112C110.032 98.1805 107.047 100.785 104.962 100.444C103.614 100.224 99.5961 97.7176 100.416 100.779Z" fill="black"/>
<path fill-rule="evenodd" clip-rule="evenodd" d="M97.755 93.0348C98.2532 90.7115 93.1758 88.1474 91.3335 88.787C88.6383 89.7229 88.6499 95.7067 90.7059 97.2976C90.9764 97.5071 91.8058 98.0063 92.2119 97.6083C92.853 96.979 92.1527 97.1506 92.0028 96.5222C91.7655 95.5229 90.9889 94.2399 91.7623 93.103C93.2244 90.955 97.0418 96.3636 97.755 93.0348Z" fill="black"/>
<path fill-rule="evenodd" clip-rule="evenodd" d="M82.2732 104.311C80.4425 104.208 78.9415 107.052 81.6348 106.814C82.1506 106.768 83.2588 106.638 83.5581 106.096C84.0534 105.197 83.0781 104.356 82.2732 104.311Z" fill="black"/>
<path fill-rule="evenodd" clip-rule="evenodd" d="M171.083 36.5143C170.456 35.6071 169.143 34.1472 168.012 35.0571C167.01 35.864 167.185 37.8556 167.57 38.8452C168.604 41.5094 171.047 43.8829 173.811 42.3479C172.851 40.4223 172.31 38.2901 171.083 36.5143Z" fill="black"/>
</svg>
